<?xml version="1.0" standalone="no"?>
<!DOCTYPE svg PUBLIC "-//W3C//DTD SVG 20010904//EN"
 "http://www.w3.org/TR/2001/REC-SVG-20010904/DTD/svg10.dtd">
<svg version="1.0" xmlns="http://www.w3.org/2000/svg"
 width="5569.000000pt" height="4374.000000pt" viewBox="0 0 5569.000000 4374.000000"
 preserveAspectRatio="xMidYMid meet">

<g transform="translate(0.000000,4374.000000) scale(0.100000,-0.100000)"
fill="#000000" stroke="none">
<path d="M4490 43733 c-652 -47 -1235 -201 -1805 -477 -224 -109 -359 -185
-550 -311 -712 -470 -1268 -1093 -1645 -1845 -256 -511 -407 -1028 -472 -1625
-11 -98 -13 -2628 -13 -14120 0 -13399 1 -14006 18 -14145 97 -787 335 -1443
752 -2070 770 -1160 2023 -1937 3404 -2110 277 -35 424 -40 1128 -40 l692 0 4
-1628 c3 -1451 5 -1643 20 -1772 93 -790 371 -1466 853 -2070 133 -167 449
-484 609 -611 628 -499 1311 -785 2115 -886 140 -17 935 -18 21245 -18 20310
0 21105 1 21245 18 518 65 984 207 1427 437 377 195 688 424 998 735 252 252
436 484 597 752 295 492 454 950 546 1565 15 105 17 867 19 10640 l3 10527
-42 5 c-24 3 -169 13 -323 21 -366 20 -531 32 -690 51 -1534 179 -2874 983
-3678 2205 -627 954 -889 2089 -746 3232 11 89 60 401 108 692 74 452 84 530
71 533 -8 1 -265 -29 -570 -67 -680 -86 -797 -95 -1145 -88 -385 8 -667 44
-1020 132 -1823 451 -3165 2005 -3449 3996 -46 319 -51 405 -51 834 0 459 -2
439 86 1137 32 262 59 481 59 487 0 14 -34088 15 -34391 1 -525 -25 -992 -130
-1458 -330 -1063 -454 -1883 -1346 -2241 -2435 -114 -348 -171 -665 -190
-1051 -6 -126 -10 -4851 -10 -12852 l0 -12654 -727 5 c-781 5 -823 7 -1108 62
-463 89 -905 279 -1302 562 -269 191 -544 468 -740 743 -304 428 -487 894
-560 1430 -17 130 -18 615 -18 14035 0 13395 1 13905 18 14035 54 396 146 695
324 1043 217 424 530 794 921 1090 168 127 331 226 537 327 400 196 788 300
1240 330 114 8 6108 10 20990 8 19479 -3 20838 -5 20951 -21 467 -65 852 -191
1229 -402 852 -478 1445 -1313 1594 -2245 39 -238 41 -323 41 -1430 1 -1166 0
-1160 53 -1302 39 -107 85 -176 182 -273 98 -99 188 -154 320 -195 95 -30 273
-38 372 -17 296 63 519 280 599 582 18 66 19 129 19 1225 0 1273 -1 1298 -65
1678 -181 1075 -745 2064 -1589 2785 -783 669 -1753 1066 -2800 1147 -93 7
-6732 9 -21040 8 -11499 -1 -20926 -3 -20951 -5z m38104 -7635 c13 -401 42
-716 96 -1045 152 -924 473 -1776 950 -2525 386 -604 863 -1127 1435 -1574
159 -123 496 -347 693 -458 693 -393 1491 -652 2277 -740 197 -22 383 -36 485
-36 l87 0 6 -277 c10 -496 63 -896 182 -1378 447 -1812 1657 -3310 3363 -4164
574 -287 1221 -502 1841 -612 l131 -24 -3 -9765 c-2 -9380 -3 -9769 -21 -9870
-62 -362 -184 -674 -375 -961 -430 -646 -1121 -1052 -1904 -1118 -181 -15
-41803 -15 -41984 0 -893 75 -1673 599 -2058 1384 -111 225 -179 439 -222 700
-17 106 -18 664 -18 15290 0 14679 1 15184 18 15295 69 427 247 828 520 1165
79 97 266 284 362 361 191 152 454 305 680 393 195 76 451 138 665 160 48 5
7186 9 16436 10 l16351 1 7 -212z"/>
<path d="M13940 22853 c-947 -56 -1712 -469 -2059 -1113 -275 -512 -293 -1299
-39 -1804 135 -269 415 -562 704 -737 261 -157 727 -339 1424 -554 522 -162
770 -280 956 -457 83 -79 131 -152 165 -248 30 -87 33 -283 5 -375 -32 -108
-83 -190 -162 -264 -149 -139 -341 -201 -623 -201 -186 0 -293 23 -431 91 -89
45 -118 65 -191 139 -75 74 -94 101 -138 191 -47 98 -80 207 -97 322 l-6 47
-904 0 c-717 0 -904 -3 -904 -12 0 -121 44 -403 86 -552 192 -686 756 -1208
1561 -1446 632 -187 1441 -192 2030 -14 923 279 1507 973 1573 1867 11 150 2
359 -21 492 -33 195 -107 400 -196 547 -127 210 -359 446 -594 603 -227 152
-680 346 -1310 560 -1052 358 -1285 519 -1306 900 -25 461 325 730 847 650
360 -54 599 -283 651 -623 l12 -82 918 0 918 0 -5 58 c-42 485 -190 870 -457
1189 -351 417 -903 697 -1562 792 -249 36 -585 49 -845 34z"/>
<path d="M27130 22854 c-466 -40 -770 -107 -1135 -251 -437 -173 -819 -419
-1149 -742 -596 -585 -948 -1318 -1030 -2149 -60 -604 4 -1153 199 -1697 55
-155 218 -487 312 -638 297 -474 701 -866 1186 -1151 1042 -612 2421 -655
3507 -111 975 489 1654 1405 1849 2492 42 236 55 395 55 698 0 379 -28 619
-109 944 -201 798 -666 1482 -1332 1957 -474 339 -1044 554 -1668 630 -123 15
-581 27 -685 18z m461 -1545 c251 -25 447 -81 650 -185 228 -117 436 -299 592
-515 74 -104 201 -351 241 -473 42 -124 74 -260 98 -411 18 -116 22 -185 22
-405 1 -162 -4 -304 -12 -366 -88 -691 -432 -1219 -967 -1484 -290 -144 -617
-203 -988 -180 -485 31 -827 179 -1138 489 -158 158 -254 294 -348 491 -146
307 -205 610 -205 1040 0 265 14 401 60 608 122 547 449 985 904 1211 177 89
374 149 560 170 52 6 109 13 125 15 70 8 311 5 406 -5z"/>
<path d="M17700 22080 l0 -680 925 0 925 0 0 -2800 0 -2800 845 0 845 0 0
2800 0 2800 925 0 925 0 0 680 0 680 -2695 0 -2695 0 0 -680z"/>
<path d="M32012 19283 l3 -3478 848 -3 847 -2 0 1315 0 1315 203 0 202 -1 724
-1314 723 -1315 955 0 c897 0 955 1 949 17 -4 10 -327 566 -718 1238 -392 671
-749 1284 -794 1362 l-82 141 119 41 c656 225 1109 667 1313 1281 78 236 108
424 108 690 1 335 -57 622 -183 912 -272 628 -856 1059 -1639 1212 -320 62
-236 59 -1983 63 l-1597 4 2 -3478z m2933 2056 c134 -17 229 -44 335 -95 80
-39 109 -61 181 -133 71 -72 94 -104 133 -182 55 -113 73 -178 88 -323 24
-233 -24 -465 -131 -628 -127 -195 -332 -305 -623 -337 -57 -7 -329 -11 -658
-11 l-560 0 0 860 0 860 573 0 c356 0 606 -4 662 -11z"/>
<path d="M38080 22754 c0 -4 539 -1049 1198 -2323 l1197 -2316 5 -1155 5
-1155 845 0 845 0 5 1155 5 1155 1198 2316 c658 1275 1197 2320 1197 2323 0 3
-428 5 -951 4 l-951 -3 -663 -1443 c-364 -794 -667 -1442 -671 -1441 -5 1
-309 650 -676 1443 l-666 1441 -961 3 c-529 1 -961 -1 -961 -4z"/>
<path d="M35225 12703 c-991 -50 -1777 -484 -2118 -1168 -127 -255 -189 -552
-189 -900 0 -446 98 -782 310 -1064 197 -261 434 -462 713 -601 291 -147 655
-282 1271 -474 536 -167 778 -281 962 -456 134 -128 185 -235 193 -410 16
-347 -181 -583 -551 -661 -122 -26 -358 -28 -470 -4 -298 63 -503 244 -594
525 -16 49 -52 219 -52 246 0 2 -405 4 -900 4 l-900 0 0 -68 c0 -226 84 -574
193 -802 120 -250 333 -514 567 -701 170 -136 449 -291 672 -373 752 -276
1744 -284 2422 -19 695 271 1165 778 1331 1435 116 454 70 966 -117 1330 -120
235 -370 504 -631 678 -233 156 -705 357 -1377 585 -345 117 -569 204 -755
295 -286 138 -401 245 -466 430 -29 84 -32 279 -6 379 41 154 142 279 284 354
223 117 574 111 813 -14 213 -111 339 -285 380 -524 l17 -100 914 0 914 0 -3
70 c-7 184 -68 468 -138 646 -285 724 -953 1194 -1889 1328 -239 34 -542 47
-800 34z"/>
<path d="M11840 9130 l0 -3480 1663 0 c1023 0 1725 4 1827 10 571 36 1013 178
1370 440 47 34 139 117 205 184 282 283 434 619 476 1052 14 144 7 395 -15
519 -62 346 -223 658 -471 911 -201 205 -437 345 -705 419 -52 15 -102 29
-110 31 -8 3 24 18 70 34 123 42 331 150 439 228 116 82 276 240 354 349 195
273 287 587 287 976 0 478 -141 860 -429 1160 -339 353 -757 542 -1381 624
-124 16 -281 18 -1857 20 l-1723 4 0 -3481z m2966 2109 c308 -34 520 -159 623
-369 54 -111 71 -194 71 -356 0 -228 -49 -365 -179 -495 -62 -62 -93 -85 -171
-122 -192 -92 -241 -97 -987 -97 l-623 0 0 725 0 725 585 0 c348 0 625 -4 681
-11z m286 -2721 c112 -31 248 -98 330 -163 102 -82 186 -214 224 -350 25 -93
30 -313 10 -416 -48 -239 -213 -421 -457 -505 -165 -56 -176 -56 -946 -61
l-713 -5 0 767 0 766 728 -3 727 -3 97 -27z"/>
<path d="M18520 9130 l0 -3480 845 0 845 0 0 3480 0 3480 -845 0 -845 0 0
-3480z"/>
<path d="M21210 11930 l0 -680 920 0 920 0 0 -2800 0 -2800 850 0 850 0 0
2800 0 2800 920 0 920 0 0 680 0 680 -2690 0 -2690 0 0 -680z"/>
<path d="M27590 9130 l0 -3480 2130 0 2130 0 0 680 0 680 -1280 0 -1280 0 0
760 0 760 1130 0 1130 0 0 660 0 660 -1130 0 -1130 0 0 700 0 700 1280 0 1280
0 0 680 0 680 -2130 0 -2130 0 0 -3480z"/>
<path d="M39927 7404 c-121 -18 -271 -72 -369 -130 -88 -53 -234 -188 -286
-265 -105 -155 -153 -317 -154 -514 -2 -266 85 -472 272 -649 195 -184 424
-269 730 -269 226 -1 397 41 566 140 103 60 264 219 324 321 172 293 154 698
-44 975 -48 69 -169 187 -237 234 -208 143 -512 203 -802 157z"/>
</g>
</svg>
