<svg xmlns="http://www.w3.org/2000/svg" viewBox="0 0 103.91 81.63"><defs><style>.cls-1{fill:#fff;}.cls-2{fill:#fcc80b;}.cls-3{fill:#fdc80c;}</style></defs><g id="Layer_2" data-name="Layer 2"><g id="Layer_1-2" data-name="Layer 1"><path class="cls-1" d="M24.13,52a4.21,4.21,0,0,1-1.8-1.37,3.73,3.73,0,0,1-.71-2.17H25a1.49,1.49,0,0,0,1.6,1.47,1.73,1.73,0,0,0,1.1-.32,1.17,1.17,0,0,0,.09-1.69,2.5,2.5,0,0,0-.8-.51,10.81,10.81,0,0,0-1.33-.46,14.42,14.42,0,0,1-2.05-.78A3.88,3.88,0,0,1,22.23,45a3.18,3.18,0,0,1-.57-2A3.4,3.4,0,0,1,23,40.19a5.39,5.39,0,0,1,3.41-1,5.44,5.44,0,0,1,3.44,1A3.66,3.66,0,0,1,31.22,43H27.81a1.3,1.3,0,0,0-.46-1,1.6,1.6,0,0,0-1.08-.36,1.34,1.34,0,0,0-.93.31,1.17,1.17,0,0,0,.24,1.85,10.12,10.12,0,0,0,1.85.75,20.28,20.28,0,0,1,2,.81,4,4,0,0,1,1.36,1.13,3,3,0,0,1,.57,1.9,3.75,3.75,0,0,1-.56,2,3.89,3.89,0,0,1-1.63,1.44,5.58,5.58,0,0,1-2.53.54A6.76,6.76,0,0,1,24.13,52Z"/><path class="cls-1" d="M42.9,39.35v2.53H39.48V52.29H36.33V41.88H32.9V39.35Z"/><path class="cls-1" d="M56.62,42.37A6.16,6.16,0,0,0,54.22,40a7,7,0,0,0-6.68,0,6.35,6.35,0,0,0-2.42,2.35,7,7,0,0,0,0,6.83,6.4,6.4,0,0,0,2.42,2.37,7,7,0,0,0,6.68,0,6.39,6.39,0,0,0,2.39-2.37,6.66,6.66,0,0,0,.89-3.42A6.74,6.74,0,0,0,56.62,42.37Zm-3.26,6.14a3.17,3.17,0,0,1-2.48,1,3.23,3.23,0,0,1-2.5-1,4.5,4.5,0,0,1,0-5.48,3.23,3.23,0,0,1,2.5-1,3.17,3.17,0,0,1,2.48,1,4.47,4.47,0,0,1,0,5.46Z"/><path class="cls-1" d="M66.12,52.29,63.43,47.4h-.76v4.89H59.52V39.35h5.29a5.79,5.79,0,0,1,2.61.54A3.64,3.64,0,0,1,69,41.35a4,4,0,0,1,.53,2.07,3.74,3.74,0,0,1-2.87,3.74l3,5.13Zm-3.45-7.12h2a1.77,1.77,0,0,0,1.29-.42,1.59,1.59,0,0,0,.44-1.2,1.56,1.56,0,0,0-.44-1.16A1.77,1.77,0,0,0,64.63,42h-2Z"/><path class="cls-1" d="M82.9,39.35,78.43,48v4.28H75.28V48L70.8,39.35h3.57l2.51,5.42,2.49-5.42Z"/><path class="cls-1" d="M31.63,65.66a3.38,3.38,0,0,1-.45,4.56,4.75,4.75,0,0,1-3.16,1H22V58.24h5.82a4.78,4.78,0,0,1,3.09.9,3.3,3.3,0,0,1,.52,4.35,3.18,3.18,0,0,1-1.6,1.05A3,3,0,0,1,31.63,65.66Zm-6.49-2.19h2.07a1.79,1.79,0,0,0,1.18-.34,1.22,1.22,0,0,0,.42-1,1.26,1.26,0,0,0-.42-1,1.79,1.79,0,0,0-1.18-.35H25.14Zm3.55,4.8a1.26,1.26,0,0,0,.43-1,1.35,1.35,0,0,0-.45-1.07,1.84,1.84,0,0,0-1.24-.39H25.14v2.86h2.32A1.88,1.88,0,0,0,28.69,68.27Z"/><path class="cls-1" d="M37.56,58.24V71.17H34.41V58.24Z"/><path class="cls-1" d="M49.43,58.24v2.52H46V71.17H42.85V60.76H39.42V58.24Z"/><path class="cls-1" d="M54.44,60.76v2.62h4.22v2.43H54.44v2.84h4.77v2.52H51.29V58.24h7.92v2.52Z"/><path class="cls-1" d="M63.67,70.84a4.19,4.19,0,0,1-1.8-1.36,3.76,3.76,0,0,1-.71-2.18h3.36a1.49,1.49,0,0,0,1.6,1.48,1.75,1.75,0,0,0,1.1-.32,1.1,1.1,0,0,0,.41-.9,1.07,1.07,0,0,0-.32-.79,2.7,2.7,0,0,0-.8-.52c-.31-.13-.75-.28-1.33-.46A13.4,13.4,0,0,1,63.13,65a3.8,3.8,0,0,1-1.36-1.14,3.2,3.2,0,0,1-.57-2,3.36,3.36,0,0,1,1.31-2.83,6.21,6.21,0,0,1,6.85,0,3.66,3.66,0,0,1,1.4,2.84H67.35a1.33,1.33,0,0,0-.46-1,1.61,1.61,0,0,0-1.09-.36,1.38,1.38,0,0,0-.92.3,1.13,1.13,0,0,0-.35.88,1.08,1.08,0,0,0,.59,1,9.35,9.35,0,0,0,1.85.76,16.38,16.38,0,0,1,2,.81,4,4,0,0,1,1.36,1.12,3,3,0,0,1,.57,1.9,3.68,3.68,0,0,1-.57,2,3.9,3.9,0,0,1-1.63,1.44,5.64,5.64,0,0,1-2.52.53A6.57,6.57,0,0,1,63.67,70.84Z"/><circle class="cls-2" cx="74.56" cy="69.6" r="1.78"/><path class="cls-3" d="M18.78,81.63H96.34a7.52,7.52,0,0,0,7.57-7.44V35.57l-1.35-.08h0a9.89,9.89,0,0,1-5.42-2A9,9,0,0,1,94,29a9.33,9.33,0,0,1-.24-4.08L94.05,23l-1.91.24a8.49,8.49,0,0,1-6.23-1.62,9.61,9.61,0,0,1-3.46-9l.2-1.61H18.78a7.51,7.51,0,0,0-7.57,7.43V65.71H9a6,6,0,0,1-6.1-5.93v-51A6,6,0,0,1,9,2.87H86.08a6,6,0,0,1,6.1,5.92v3.66a1.44,1.44,0,0,0,2.87,0V8.79a8.89,8.89,0,0,0-9-8.79H9A8.89,8.89,0,0,0,0,8.79v51a8.9,8.9,0,0,0,9,8.8h2.24v5.61A7.52,7.52,0,0,0,18.78,81.63Zm-4.7-63.21a4.63,4.63,0,0,1,4.7-4.56h60.7l0,.57a13,13,0,0,0,.83,4.27,11.72,11.72,0,0,0,3.84,5.2,11.26,11.26,0,0,0,6,2.24l.54,0v.54a11.75,11.75,0,0,0,4.72,9.13,12.66,12.66,0,0,0,5.1,2.27l.48.1v36a4.63,4.63,0,0,1-4.7,4.56H18.78a4.63,4.63,0,0,1-4.7-4.56Z"/></g></g></svg>